<svg xmlns="http://www.w3.org/2000/svg" xmlns:xlink="http://www.w3.org/1999/xlink" width="258" height="82.388" viewBox="0 0 258 82.388">
  <defs>
    <clipPath id="clip-path">
      <rect id="Rectangle_1432" data-name="Rectangle 1432" width="258" height="82.388" fill="none"/>
    </clipPath>
  </defs>
  <g id="Group_1217" data-name="Group 1217" transform="translate(0 5.671)">
    <g id="Group_1216" data-name="Group 1216" transform="translate(0 -5.671)" clip-path="url(#clip-path)">
      <path id="Path_4540" data-name="Path 4540" d="M3.754,71.728H2.043v4.989H0v1.615H2.091V94.2c0,1.473.57,2.328,2.9,2.328.57,0,1.188-.048,1.758-.1v-1.52c-.428.048-1.093.1-1.52.1C3.8,95.01,3.8,94.2,3.8,93.157V78.427H6.747V76.812H3.754Z" transform="translate(0 -37.709)" fill="#e7bfce"/>
      <path id="Path_4541" data-name="Path 4541" d="M26.8,74.133a4.129,4.129,0,0,0-2.471-.76,4.606,4.606,0,0,0-3.564,1.758v-9.5H19.1V93.234h1.663V77.6A3.164,3.164,0,0,1,23.9,74.988c2.566,0,2.566,2.376,2.566,3.659V93.234h1.663V77.649a3.936,3.936,0,0,0-1.33-3.516" transform="translate(-10.025 -34.507)" fill="#e7bfce"/>
      <path id="Path_4542" data-name="Path 4542" d="M47.215,87.4c0-.95,0-3.8,2.851-3.8,2.8,0,2.8,2.993,2.8,3.611v3.611H47.215Zm7.365,9.883V95.1H52.917c0,2.8,0,2.993-.285,3.659a2.442,2.442,0,0,1-2.518,1.663c-1.615,0-2.9-.76-2.9-3.326V92.248H54.58V88.3c0-2.423,0-6.177-4.561-6.177-2.8,0-4.419,1.71-4.419,4.7V97.095a4.322,4.322,0,0,0,1.378,3.706,4.2,4.2,0,0,0,3.088,1.093c2.851.048,4.514-1.663,4.514-4.609" transform="translate(-23.934 -43.167)" fill="#e7bfce"/>
      <path id="Path_4543" data-name="Path 4543" d="M100.075,93.234V77.649a3.676,3.676,0,0,0-3.849-4.276,4.606,4.606,0,0,0-3.564,1.758v-9.5H91V93.234h1.663V77.6A3.164,3.164,0,0,1,95.8,74.988c2.566,0,2.566,2.376,2.566,3.659V93.234Z" transform="translate(-47.762 -34.507)" fill="#e7bfce"/>
      <path id="Path_4544" data-name="Path 4544" d="M121.806,102.094a4.3,4.3,0,0,0,3.564-1.948V102h1.663V82.328H125.37V98.15a3.3,3.3,0,0,1-3.041,2.518c-2.423,0-2.566-2.376-2.566-3.611V82.328H118.1V97.485c0,1,0,2.946,1.568,3.991a3.9,3.9,0,0,0,2.138.618" transform="translate(-61.986 -43.272)" fill="#e7bfce"/>
      <path id="Path_4545" data-name="Path 4545" d="M158.286,81.828a4.765,4.765,0,0,0-3.991,2.328,3.367,3.367,0,0,0-3.326-2.328,4.811,4.811,0,0,0-3.659,1.853V82.018H145.6v19.671h1.663V85.534a3.633,3.633,0,0,1,3.183-2.138,2.442,2.442,0,0,1,2.138,1.14,3.5,3.5,0,0,1,.333,1.711v15.49h1.663V85.819a3.493,3.493,0,0,1,3.231-2.471,2.249,2.249,0,0,1,2.281,1.615,11.688,11.688,0,0,1,.143,2.708v14.064H161.9V87.815a14.558,14.558,0,0,0-.19-3.373,3.279,3.279,0,0,0-3.421-2.613" transform="translate(-76.42 -43.01)" fill="#e7bfce"/>
      <path id="Path_4546" data-name="Path 4546" d="M195.432,84.489a3.5,3.5,0,0,1,.333,1.71v15.49h1.663V85.819a3.493,3.493,0,0,1,3.231-2.471,2.249,2.249,0,0,1,2.281,1.615,11.688,11.688,0,0,1,.143,2.708v14.064h1.663V87.815a14.557,14.557,0,0,0-.19-3.373,3.385,3.385,0,0,0-3.468-2.613,4.765,4.765,0,0,0-3.991,2.328,3.367,3.367,0,0,0-3.326-2.328,4.811,4.811,0,0,0-3.659,1.853V82.018H188.4v19.671h1.663V85.534a3.633,3.633,0,0,1,3.183-2.138,2.492,2.492,0,0,1,2.186,1.093" transform="translate(-98.884 -43.01)" fill="#e7bfce"/>
      <rect id="Rectangle_1424" data-name="Rectangle 1424" width="1.663" height="19.671" transform="translate(109.851 39.056)" fill="#e7bfce"/>
      <rect id="Rectangle_1425" data-name="Rectangle 1425" width="1.663" height="3.041" transform="translate(109.851 33.734)" fill="#e7bfce"/>
      <path id="Path_4547" data-name="Path 4547" d="M250.765,82.351a4.486,4.486,0,0,0-2.043-.523,4.411,4.411,0,0,0-2.281.618,4.3,4.3,0,0,0-1.378,1.473v-1.9H243.4v19.671h1.663V85.772a3.9,3.9,0,0,1,.713-1.283,3.536,3.536,0,0,1,2.566-1.188c1.093,0,2.423.618,2.423,2.708v15.727h1.663V85.962a3.671,3.671,0,0,0-1.663-3.611" transform="translate(-127.751 -43.01)" fill="#e7bfce"/>
      <path id="Path_4548" data-name="Path 4548" d="M277.655,97.18a3.313,3.313,0,0,1-3.088,2.946c-2.566,0-2.566-2.518-2.566-3.754V87.3c0-1.235,0-3.849,2.708-3.849a3.135,3.135,0,0,1,2.946,2.756Zm1.663,5.512V82.071h-1.663v1.663a3.873,3.873,0,0,0-3.278-1.806c-3.326,0-4.039,2.423-4.039,4.466v9.93c0,1.663,0,5.369,3.849,5.369a4.181,4.181,0,0,0,3.421-1.711v3.278a2.927,2.927,0,0,1-3.136,3.088c-2.613,0-2.661-1.853-2.708-2.566H270.1c.047,1.188.1,2.471,1.425,3.373a5.119,5.119,0,0,0,2.9.808,4.972,4.972,0,0,0,3.326-1.14,4.812,4.812,0,0,0,1.568-4.134" transform="translate(-141.765 -43.062)" fill="#e7bfce"/>
      <path id="Path_4549" data-name="Path 4549" d="M299.658,78.457c0-2.566,1.615-3.564,3.136-3.564,1.9,0,2.613,1.52,2.613,3.611v9.55a4.164,4.164,0,0,1-1,3.136,2.293,2.293,0,0,1-1.663.665c-1.33,0-3.136-1.188-3.136-3.944V78.457Zm.048,13.161a3.57,3.57,0,0,0,3.183,1.71c2.328,0,4.134-1.806,4.134-4.7V78.6c0-1.425,0-5.227-3.849-5.227a4.343,4.343,0,0,0-3.611,1.9V65.628H297.9V93.186h1.711V91.618Z" transform="translate(-156.356 -34.507)" fill="#e7bfce"/>
      <rect id="Rectangle_1426" data-name="Rectangle 1426" width="1.663" height="3.041" transform="translate(154.563 33.734)" fill="#e7bfce"/>
      <rect id="Rectangle_1427" data-name="Rectangle 1427" width="1.663" height="19.671" transform="translate(154.563 39.056)" fill="#e7bfce"/>
      <path id="Path_4550" data-name="Path 4550" d="M343.2,81.328c-2.8,1.425-3.564,2.756-4.086,3.944V81.851H337.5v19.671h1.663V87.6c1.378-3.183,2.518-3.611,4.086-4.086V81.328Z" transform="translate(-177.141 -42.747)" fill="#e7bfce"/>
      <path id="Path_4551" data-name="Path 4551" d="M361.612,89.1a3.28,3.28,0,0,1-3.088,2.851c-2.708,0-2.708-2.851-2.708-3.8v-9.5c0-3.278,2.186-3.421,2.756-3.421,2.518,0,3.041,2.946,3.041,3.469Zm1.663,4.181V65.728h-1.663v9.788a3.928,3.928,0,0,0-3.469-1.853c-1.188,0-3.944.523-3.944,4.989v9.835c0,.95,0,4.941,3.9,4.941a3.918,3.918,0,0,0,3.611-2.233v2.091h1.568" transform="translate(-185.906 -34.559)" fill="#e7bfce"/>
      <path id="Path_4552" data-name="Path 4552" d="M408.16,88.055a4.164,4.164,0,0,1-1,3.136,2.293,2.293,0,0,1-1.663.665c-1.33,0-3.136-1.188-3.136-3.944V78.457c0-2.566,1.615-3.564,3.136-3.564,1.9,0,2.613,1.52,2.613,3.611v9.55Zm1.615-9.455c0-1.425,0-5.227-3.849-5.227a4.343,4.343,0,0,0-3.611,1.9V65.628H400.7V93.186h1.71V91.571a3.57,3.57,0,0,0,3.183,1.711c2.328,0,4.134-1.806,4.134-4.7Z" transform="translate(-210.312 -34.507)" fill="#e7bfce"/>
      <path id="Path_4553" data-name="Path 4553" d="M427.758,97.332c0-2.9,1.663-3.849,3.611-4.941a19.32,19.32,0,0,0,2.328-1.378v7.46a4.389,4.389,0,0,1-3.421,1.853c-1.853,0-2.518-1.425-2.518-2.993m5.939,3.041c.333,1.283,1.093,1.52,2.8,1.52v-1.568c-.57,0-1.188-.048-1.188-.713V86.4c0-1.188,0-4.276-3.991-4.276-4.514,0-4.514,3.183-4.514,6.177h1.663c0-2.613,0-4.609,2.613-4.609,2.328,0,2.518,1.425,2.518,3.183V89.16a17.661,17.661,0,0,1-3.278,1.948C428.281,92.153,426,93.531,426,97.285c0,2.423,1.093,4.609,3.849,4.609a5.787,5.787,0,0,0,3.849-1.52" transform="translate(-223.591 -43.167)" fill="#e7bfce"/>
      <path id="Path_4554" data-name="Path 4554" d="M463.493,93.233,458.456,81.07l4.561-7.507h-1.9l-5.654,9.218V65.628H453.8V93.233h1.711V85.916l1.853-3.088,4.324,10.406Z" transform="translate(-238.182 -34.507)" fill="#e7bfce"/>
      <path id="Path_4555" data-name="Path 4555" d="M486.117,90.871h-5.654V87.4c0-.95,0-3.8,2.851-3.8,2.8,0,2.8,2.993,2.8,3.611Zm-2.9-8.743c-2.8,0-4.419,1.71-4.419,4.7V97.095a4.322,4.322,0,0,0,1.378,3.706,4.2,4.2,0,0,0,3.088,1.093c2.9,0,4.514-1.663,4.514-4.656V95.052h-1.663c0,2.8,0,2.993-.285,3.659a2.442,2.442,0,0,1-2.518,1.663c-1.615,0-2.9-.76-2.9-3.326V92.2h7.365V88.3c0-2.423,0-6.177-4.561-6.177" transform="translate(-251.304 -43.167)" fill="#e7bfce"/>
      <path id="Path_4556" data-name="Path 4556" d="M507.015,85.219V81.8H505.4v19.671h1.663V87.547c1.378-3.183,2.518-3.611,4.086-4.086V81.228c-2.851,1.425-3.611,2.8-4.134,3.991" transform="translate(-265.265 -42.695)" fill="#e7bfce"/>
      <path id="Path_4557" data-name="Path 4557" d="M529.49,82.328l-3.469,16.345L522.6,82.328h-1.663l4.276,19.528-.475,2.281a3.044,3.044,0,0,1-3.183,2.708,4.706,4.706,0,0,1-.855-.1v1.663c2.518,0,4.609-.19,5.559-4.181L531.3,82.376Z" transform="translate(-273.296 -43.272)" fill="#e7bfce"/>
      <path id="Path_4558" data-name="Path 4558" d="M64.354,161.115a2.081,2.081,0,0,1-1.663.9c-.9,0-1.235-.713-1.235-1.473,0-1.378.808-1.853,1.758-2.376.76-.428.808-.475,1.14-.665Zm.76.57v-6.367a1.788,1.788,0,0,0-1.948-2.091c-2.186,0-2.186,1.52-2.186,2.993h.808c0-1.283,0-2.233,1.283-2.233,1.093,0,1.188.713,1.188,1.568v1.093a8.687,8.687,0,0,1-1.568.95,3.13,3.13,0,0,0-2.091,2.993c0,1.188.523,2.233,1.853,2.233a3.044,3.044,0,0,0,1.853-.713c.19.618.523.713,1.378.713v-.76c-.285-.048-.57-.048-.57-.38" transform="translate(-31.807 -80.485)" fill="#e7bfce"/>
      <path id="Path_4559" data-name="Path 4559" d="M77.516,160.978a1.645,1.645,0,0,1-1.473,1.235c-1.188,0-1.235-1.14-1.235-1.758v-7.127H74v7.317a2.215,2.215,0,0,0,.76,1.948,1.916,1.916,0,0,0,1.045.285,2,2,0,0,0,1.71-.95v.9h.808v-9.5h-.808Z" transform="translate(-38.84 -80.537)" fill="#e7bfce"/>
      <path id="Path_4560" data-name="Path 4560" d="M87.406,148.228H86.6v2.423h-1v.76h1v7.65c0,.713.285,1.093,1.378,1.093a5.162,5.162,0,0,0,.855-.048v-.713c-.19,0-.523.048-.713.048-.713,0-.713-.38-.713-.9v-7.127h1.425v-.76H87.406Z" transform="translate(-44.928 -77.861)" fill="#e7bfce"/>
      <path id="Path_4561" data-name="Path 4561" d="M98.606,149.362a1.87,1.87,0,0,0-1.188-.38,2.243,2.243,0,0,0-1.71.855v-4.609H94.9v13.351h.808v-7.555a1.5,1.5,0,0,1,1.52-1.235c1.235,0,1.235,1.14,1.235,1.758v7.032h.808v-7.555a2.291,2.291,0,0,0-.665-1.663" transform="translate(-49.809 -76.286)" fill="#e7bfce"/>
      <path id="Path_4562" data-name="Path 4562" d="M111.116,157.457H108.36v-1.663c0-.475,0-1.853,1.378-1.853s1.378,1.473,1.378,1.758Zm-1.378-4.229a2,2,0,0,0-2.138,2.281V160.5a2.147,2.147,0,0,0,.665,1.806,1.95,1.95,0,0,0,1.473.523,2.014,2.014,0,0,0,2.186-2.233v-1.045h-.808c0,1.378,0,1.473-.143,1.758a1.186,1.186,0,0,1-1.235.808c-.76,0-1.378-.38-1.378-1.615v-2.328h3.564v-1.9c.048-1.235.048-3.041-2.186-3.041" transform="translate(-56.475 -80.485)" fill="#e7bfce"/>
      <path id="Path_4563" data-name="Path 4563" d="M124.064,153.366a2.041,2.041,0,0,0-1-.238,1.968,1.968,0,0,0-1.093.285,1.829,1.829,0,0,0-.665.713v-.9H120.5v9.5h.808v-7.745a2.671,2.671,0,0,1,.333-.618,1.688,1.688,0,0,1,1.235-.57,1.143,1.143,0,0,1,1.188,1.283v7.6h.808v-7.65a1.783,1.783,0,0,0-.808-1.663" transform="translate(-63.246 -80.432)" fill="#e7bfce"/>
      <path id="Path_4564" data-name="Path 4564" d="M133.806,148.228H133v2.423h-1v.76h1v7.65c0,.713.285,1.093,1.378,1.093a5.162,5.162,0,0,0,.855-.048v-.713c-.19,0-.523.048-.713.048-.713,0-.713-.38-.713-.9v-7.127h1.425v-.76h-1.425Z" transform="translate(-69.282 -77.861)" fill="#e7bfce"/>
      <rect id="Rectangle_1428" data-name="Rectangle 1428" width="0.808" height="1.473" transform="translate(66.994 70.225)" fill="#e7bfce"/>
      <rect id="Rectangle_1429" data-name="Rectangle 1429" width="0.808" height="9.503" transform="translate(66.994 72.791)" fill="#e7bfce"/>
      <path id="Path_4565" data-name="Path 4565" d="M149.959,160.65a1.34,1.34,0,0,1-1.33,1.568c-1.473,0-1.473-1.283-1.473-2.281v-4.086c0-.333,0-1.758,1.378-1.758a1.191,1.191,0,0,1,1.235,1,6.612,6.612,0,0,1,.1,1.71h.808v-.808c0-.713-.1-2.566-2.186-2.566A2.1,2.1,0,0,0,146.3,155.8v4.371a3.4,3.4,0,0,0,.428,2,2.08,2.08,0,0,0,1.711.808,2.11,2.11,0,0,0,2.281-2.471v-1.235h-.808v1.378Z" transform="translate(-76.787 -80.59)" fill="#e7bfce"/>
      <path id="Path_4566" data-name="Path 4566" d="M171.106,161.115a2.081,2.081,0,0,1-1.663.9c-.9,0-1.235-.713-1.235-1.473,0-1.378.808-1.853,1.758-2.376.76-.428.808-.475,1.14-.665Zm.808.57v-6.367a1.788,1.788,0,0,0-1.948-2.091c-2.186,0-2.186,1.52-2.186,2.993h.808c0-1.283,0-2.233,1.283-2.233,1.093,0,1.188.713,1.188,1.568v1.093a8.688,8.688,0,0,1-1.568.95,3.13,3.13,0,0,0-2.091,2.993c0,1.188.523,2.233,1.853,2.233a3.043,3.043,0,0,0,1.853-.713c.19.618.523.713,1.378.713v-.76c-.285-.048-.57-.048-.57-.38" transform="translate(-87.862 -80.485)" fill="#e7bfce"/>
      <path id="Path_4567" data-name="Path 4567" d="M187.029,153.128a2.312,2.312,0,0,0-1.948,1.14,1.675,1.675,0,0,0-1.615-1.14,2.244,2.244,0,0,0-1.758.9v-.808H180.9v9.5h.808v-7.84a1.737,1.737,0,0,1,1.52-1.045,1.18,1.18,0,0,1,1.045.57,2.132,2.132,0,0,1,.19.808v7.507h.808v-7.7a1.735,1.735,0,0,1,1.568-1.188,1.1,1.1,0,0,1,1.093.76,4.131,4.131,0,0,1,.1,1.283v6.794h.808v-6.7a6.582,6.582,0,0,0-.1-1.615,1.708,1.708,0,0,0-1.711-1.235" transform="translate(-94.947 -80.432)" fill="#e7bfce"/>
      <path id="Path_4568" data-name="Path 4568" d="M204.716,157.457H201.96v-1.663c0-.475,0-1.853,1.378-1.853s1.378,1.473,1.378,1.758Zm-1.378-4.229a2,2,0,0,0-2.138,2.281V160.5a2.147,2.147,0,0,0,.665,1.806,1.95,1.95,0,0,0,1.473.523,2.014,2.014,0,0,0,2.186-2.233v-1.045h-.76c0,1.378,0,1.473-.143,1.758a1.186,1.186,0,0,1-1.235.808c-.76,0-1.378-.38-1.378-1.615v-2.328h3.564v-1.9c-.048-1.235-.048-3.041-2.233-3.041" transform="translate(-105.602 -80.485)" fill="#e7bfce"/>
      <path id="Path_4569" data-name="Path 4569" d="M214.86,154.729v-1.663h-.76v9.5h.808v-6.7c.665-1.568,1.188-1.758,1.948-1.948v-1.093a3.471,3.471,0,0,0-2,1.9" transform="translate(-112.373 -80.275)" fill="#e7bfce"/>
      <rect id="Rectangle_1430" data-name="Rectangle 1430" width="0.808" height="9.503" transform="translate(105.575 72.791)" fill="#e7bfce"/>
      <rect id="Rectangle_1431" data-name="Rectangle 1431" width="0.808" height="1.473" transform="translate(105.575 70.225)" fill="#e7bfce"/>
      <path id="Path_4570" data-name="Path 4570" d="M231.159,160.65a1.34,1.34,0,0,1-1.33,1.568c-1.473,0-1.473-1.283-1.473-2.281v-4.086c0-.333,0-1.758,1.378-1.758a1.191,1.191,0,0,1,1.235,1,6.612,6.612,0,0,1,.1,1.71h.808v-.808c0-.713-.1-2.566-2.186-2.566A2.1,2.1,0,0,0,227.5,155.8v4.371a3.4,3.4,0,0,0,.428,2,2.08,2.08,0,0,0,1.711.808,2.11,2.11,0,0,0,2.281-2.471v-1.235h-.808v1.378Z" transform="translate(-119.406 -80.59)" fill="#e7bfce"/>
      <path id="Path_4571" data-name="Path 4571" d="M243.206,161.115a2.081,2.081,0,0,1-1.663.9c-.9,0-1.235-.713-1.235-1.473,0-1.378.808-1.853,1.758-2.376.76-.428.808-.475,1.14-.665Zm.808.57v-6.367a1.788,1.788,0,0,0-1.948-2.091c-2.186,0-2.186,1.52-2.186,2.993h.808c0-1.283,0-2.233,1.283-2.233,1.093,0,1.188.713,1.188,1.568v1.093a8.688,8.688,0,0,1-1.568.95,3.13,3.13,0,0,0-2.091,2.993c0,1.188.523,2.233,1.853,2.233a3.044,3.044,0,0,0,1.853-.713c.19.618.523.713,1.378.713v-.76c-.285-.048-.57-.048-.57-.38" transform="translate(-125.704 -80.485)" fill="#e7bfce"/>
      <path id="Path_4572" data-name="Path 4572" d="M256.564,153.366a2.041,2.041,0,0,0-1-.238,1.968,1.968,0,0,0-1.093.285,1.829,1.829,0,0,0-.665.713v-.9H253v9.5h.808v-7.745a2.67,2.67,0,0,1,.333-.618,1.688,1.688,0,0,1,1.235-.57,1.143,1.143,0,0,1,1.188,1.283v7.6h.808v-7.65a1.783,1.783,0,0,0-.808-1.663" transform="translate(-132.79 -80.432)" fill="#e7bfce"/>
      <path id="Path_4573" data-name="Path 4573" d="M278.359,160.65a1.34,1.34,0,0,1-1.33,1.568c-1.473,0-1.473-1.283-1.473-2.281v-4.086c0-.333,0-1.758,1.378-1.758a1.191,1.191,0,0,1,1.235,1,6.61,6.61,0,0,1,.1,1.71h.808v-.808c0-.713-.1-2.566-2.186-2.566A2.1,2.1,0,0,0,274.7,155.8v4.371a3.4,3.4,0,0,0,.428,2,2.08,2.08,0,0,0,1.711.808,2.11,2.11,0,0,0,2.281-2.471v-1.235h-.808v1.378Z" transform="translate(-144.18 -80.59)" fill="#e7bfce"/>
      <path id="Path_4574" data-name="Path 4574" d="M290.406,161.115a2.081,2.081,0,0,1-1.663.9c-.9,0-1.235-.713-1.235-1.473,0-1.378.808-1.853,1.758-2.376.76-.428.808-.475,1.14-.665Zm.808.57v-6.367a1.788,1.788,0,0,0-1.948-2.091c-2.186,0-2.186,1.52-2.186,2.993h.808c0-1.283,0-2.233,1.283-2.233,1.093,0,1.188.713,1.188,1.568v1.093a8.685,8.685,0,0,1-1.568.95,3.13,3.13,0,0,0-2.091,2.993c0,1.188.523,2.233,1.853,2.233a3.044,3.044,0,0,0,1.853-.713c.19.618.523.713,1.378.713v-.76c-.285-.048-.57-.048-.57-.38" transform="translate(-150.478 -80.485)" fill="#e7bfce"/>
      <path id="Path_4575" data-name="Path 4575" d="M304.566,149.076h-.9l-2.756,4.466v-8.315H300.1v13.351h.808v-3.516l.9-1.52,2.091,5.036h.9l-2.423-5.892Z" transform="translate(-157.511 -76.286)" fill="#e7bfce"/>
      <path id="Path_4576" data-name="Path 4576" d="M315.716,157.457H312.96v-1.663c0-.475,0-1.853,1.378-1.853s1.378,1.473,1.378,1.758Zm-1.378-4.229a2,2,0,0,0-2.138,2.281V160.5a2.147,2.147,0,0,0,.665,1.806,1.95,1.95,0,0,0,1.473.523,2.014,2.014,0,0,0,2.186-2.233v-1.045h-.76c0,1.378,0,1.473-.143,1.758a1.186,1.186,0,0,1-1.235.808c-.76,0-1.378-.38-1.378-1.615v-2.328h3.564v-1.9c0-1.235,0-3.041-2.233-3.041" transform="translate(-163.862 -80.485)" fill="#e7bfce"/>
      <path id="Path_4577" data-name="Path 4577" d="M327.141,157.837c-1.853-1.52-1.853-1.758-1.853-2.613,0-.428,0-1.235,1.188-1.235s1.188.713,1.188,2.186h.808v-.665c0-.713,0-2.281-2-2.281a1.784,1.784,0,0,0-2,2.043c0,1.378.665,1.948,1.711,2.851,1.378,1.14,1.568,1.33,1.568,2.328,0,1.283-.665,1.568-1.378,1.568-1.473,0-1.473-1.188-1.473-1.758v-.808H324.1c0,1.473,0,2.186.523,2.708a2.143,2.143,0,0,0,1.758.665,2.294,2.294,0,0,0,1.52-.475,2.47,2.47,0,0,0,.665-1.9,2.863,2.863,0,0,0-1.425-2.613" transform="translate(-170.108 -80.485)" fill="#e7bfce"/>
      <path id="Path_4578" data-name="Path 4578" d="M348.406,161.115a2.081,2.081,0,0,1-1.663.9c-.9,0-1.235-.713-1.235-1.473,0-1.378.808-1.853,1.758-2.376.76-.428.808-.475,1.14-.665Zm.808.57v-6.367a1.788,1.788,0,0,0-1.948-2.091c-2.186,0-2.186,1.52-2.186,2.993h.808c0-1.283,0-2.233,1.283-2.233,1.093,0,1.188.713,1.188,1.568v1.093a8.686,8.686,0,0,1-1.568.95,3.13,3.13,0,0,0-2.091,2.993c0,1.188.523,2.233,1.853,2.233a3.044,3.044,0,0,0,1.853-.713c.19.618.523.713,1.378.713v-.76c-.285-.048-.57-.048-.57-.38" transform="translate(-180.92 -80.485)" fill="#e7bfce"/>
      <path id="Path_4579" data-name="Path 4579" d="M361.763,153.366a2.04,2.04,0,0,0-1-.238,1.968,1.968,0,0,0-1.093.285,1.83,1.83,0,0,0-.665.713v-.9H358.2v9.5h.808v-7.745a2.674,2.674,0,0,1,.333-.618,1.688,1.688,0,0,1,1.235-.57,1.143,1.143,0,0,1,1.188,1.283v7.6h.808v-7.65a1.783,1.783,0,0,0-.808-1.663" transform="translate(-188.006 -80.432)" fill="#e7bfce"/>
      <path id="Path_4580" data-name="Path 4580" d="M374.863,156.484a1.582,1.582,0,0,1-1.473,1.378c-1.283,0-1.283-1.378-1.283-1.853V151.4c0-1.568,1.045-1.663,1.33-1.663,1.235,0,1.473,1.425,1.473,1.663Zm0-6.557a1.849,1.849,0,0,0-1.663-.9c-.57,0-1.9.238-1.9,2.423V156.2c0,.475,0,2.376,1.9,2.376a1.933,1.933,0,0,0,1.758-1.093v1h.713V145.128h-.808Z" transform="translate(-194.881 -76.233)" fill="#e7bfce"/>
      <path id="Path_4581" data-name="Path 4581" d="M397.164,156.484a1.582,1.582,0,0,1-1.473,1.378c-1.283,0-1.283-1.378-1.283-1.853V151.4c0-1.568,1.045-1.663,1.33-1.663,1.235,0,1.473,1.425,1.473,1.663Zm0-6.557a1.849,1.849,0,0,0-1.663-.9c-.57,0-1.9.238-1.9,2.423V156.2c0,.475,0,2.376,1.9,2.376a1.933,1.933,0,0,0,1.758-1.093v1h.713V145.128h-.808Z" transform="translate(-206.586 -76.233)" fill="#e7bfce"/>
      <path id="Path_4582" data-name="Path 4582" d="M410.116,157.457H407.36v-1.663c0-.475,0-1.853,1.378-1.853s1.378,1.473,1.378,1.758Zm-1.378-4.229a2,2,0,0,0-2.138,2.281V160.5a2.147,2.147,0,0,0,.665,1.806,1.95,1.95,0,0,0,1.473.523,2.014,2.014,0,0,0,2.186-2.233v-1.045h-.808c0,1.378,0,1.473-.143,1.758a1.186,1.186,0,0,1-1.235.808c-.76,0-1.378-.38-1.378-1.615v-2.328h3.564v-1.9c0-1.235,0-3.041-2.186-3.041" transform="translate(-213.409 -80.485)" fill="#e7bfce"/>
      <path id="Path_4583" data-name="Path 4583" d="M421.441,157.837c-1.853-1.52-1.853-1.758-1.853-2.613,0-.428,0-1.235,1.188-1.235s1.188.713,1.188,2.186h.808v-.665c0-.713,0-2.281-2-2.281a1.784,1.784,0,0,0-2,2.043c0,1.378.665,1.948,1.711,2.851,1.378,1.14,1.568,1.33,1.568,2.328,0,1.283-.665,1.568-1.378,1.568-1.473,0-1.473-1.188-1.473-1.758v-.808H418.4c0,1.473,0,2.186.523,2.708a2.143,2.143,0,0,0,1.758.665,2.294,2.294,0,0,0,1.52-.475,2.47,2.47,0,0,0,.665-1.9,2.863,2.863,0,0,0-1.425-2.613" transform="translate(-219.602 -80.485)" fill="#e7bfce"/>
      <path id="Path_4584" data-name="Path 4584" d="M433.041,157.837c-1.853-1.52-1.853-1.758-1.853-2.613,0-.428,0-1.235,1.188-1.235s1.188.713,1.188,2.186h.808v-.665c0-.713,0-2.281-2-2.281a1.784,1.784,0,0,0-2,2.043c0,1.378.665,1.948,1.711,2.851,1.378,1.14,1.568,1.33,1.568,2.328,0,1.283-.665,1.568-1.378,1.568-1.473,0-1.473-1.188-1.473-1.758v-.808H430c0,1.473,0,2.186.523,2.708a2.142,2.142,0,0,0,1.758.665,2.3,2.3,0,0,0,1.521-.475,2.47,2.47,0,0,0,.665-1.9,2.863,2.863,0,0,0-1.425-2.613" transform="translate(-225.691 -80.485)" fill="#e7bfce"/>
      <path id="Path_4585" data-name="Path 4585" d="M445.763,157.457h-2.756v-1.663c0-.475,0-1.853,1.378-1.853s1.378,1.473,1.378,1.758Zm-1.425-4.229a2,2,0,0,0-2.138,2.281V160.5a2.147,2.147,0,0,0,.665,1.806,1.95,1.95,0,0,0,1.473.523,2.014,2.014,0,0,0,2.186-2.233v-1.045h-.76c0,1.378,0,1.473-.143,1.758a1.186,1.186,0,0,1-1.235.808c-.76,0-1.378-.38-1.378-1.615v-2.328h3.564v-1.9c0-1.235,0-3.041-2.233-3.041" transform="translate(-232.094 -80.485)" fill="#e7bfce"/>
      <path id="Path_4586" data-name="Path 4586" d="M455.86,154.729v-1.663h-.76v9.5h.808v-6.7c.665-1.568,1.188-1.758,1.948-1.948v-1.093a3.47,3.47,0,0,0-2,1.9" transform="translate(-238.865 -80.275)" fill="#e7bfce"/>
      <path id="Path_4587" data-name="Path 4587" d="M463.805,148.228H463v2.423h-1v.76h1v7.65c0,.713.285,1.093,1.378,1.093a5.162,5.162,0,0,0,.855-.048v-.713c-.19,0-.523.048-.713.048-.713,0-.713-.38-.713-.9v-7.127h1.425v-.76h-1.425Z" transform="translate(-242.486 -77.861)" fill="#e7bfce"/>
      <path id="Path_4588" data-name="Path 4588" d="M473.141,157.837c-1.853-1.52-1.853-1.758-1.853-2.613,0-.428,0-1.235,1.188-1.235s1.188.713,1.188,2.186h.808v-.665c0-.713,0-2.281-2-2.281a1.784,1.784,0,0,0-2,2.043c0,1.378.665,1.948,1.711,2.851,1.378,1.14,1.568,1.33,1.568,2.328,0,1.283-.665,1.568-1.378,1.568-1.473,0-1.473-1.188-1.473-1.758v-.808H470.1c0,1.473,0,2.186.523,2.708a2.143,2.143,0,0,0,1.758.665,2.3,2.3,0,0,0,1.52-.475,2.47,2.47,0,0,0,.665-1.9c.048-1.425-.475-1.853-1.425-2.613" transform="translate(-246.738 -80.485)" fill="#e7bfce"/>
      <path id="Path_4589" data-name="Path 4589" d="M357.152,37.426,352.5,28.779l-.38-.618-.285-.523-.143-.57-.19-.523-.19-.475-.143-.523-.1-.57-.19-.808-.047-.808v-.38l-.19-.523-.1-.333-.143-.38-.19-.38-.19-.38,1.52-.665.665-.57,1.188-.285.76-.713,1.283-.665.428-.475.475-.855,3.421-1,.665-.665,1.425-.57.665-.475.665-.19.855-.333.665-.285.713-.38.475-.238.713-.285.855-.38.57-.333.523-.285.57-.38.428-.333.428-.38.428-.285.523-.333.9-.9-.1-.19-.808.38-.523.285-.76.19-.713.238-.665.19-.855.19-.665.238-.523.1-.523.048-.713.048-.57.1H363.9l-.618.048h-.76l-1.14.1h-.855l-1,.1-1,.048-.76.048-.618.048h-.475l-.523.048h-.57l-.475.048h-.523l-.618.048-.38-.048-.19-.048-.428-.143-.38-.1-.475-.1-.808-.048-.665-.048h-.428l-.428-.1-.523-.143-.428-.1-.428-.048-.523.048-.523.048h-.57l-.475.1-.57.048-.475.1-.475.048-.475.1-.523.1-.523-.1-.428-.19-.333-.238-.333-.285-.333-.285-.285-.333-.428-.523-.285-.333-.285-.38-.143-.285-.048-.523-.143-.523-.19-.665-.238-.523-.333-.475-.238-.76-.19-.475-.238-.475-.38-.57-.19-.333-.285-.475-.38-.285-.57-.285-.618-.143-.95-.19h-.808l-.713.048-.808.143-.808.143-.618.143-.38.143-.523.143-.333.048-7.6-1.758-.047.19,6.747,2.9.618.57.048.143.285.57.143.475.19.475.19.523.238.618.19.57.238.618.143.618.238.665.285.665.1.618.143.57.19.665.238.618.143.57.143.76.19.57.095.665.143.713.143.855.143.808.143.618.333.855.285.57.333.618.38.713.428.523.618.665.475.523.57.665.57.523.475.475.618.523.475.57.713.76.38.428.57.713,1.473.665H343.9l.9.76,1.283.523,1.853,1.663,1.045.523,1.093.76,1.948,2.613,1.9,2.993v.048l1.806.9,1-.19Z" transform="translate(-169.425 -0.128)" fill="#e7bfce"/>
    </g>
  </g>
</svg>
