<svg xmlns="http://www.w3.org/2000/svg" width="20.904" height="27.872" viewBox="0 0 20.904 27.872">
  <g id="placeholder" transform="translate(-64)">
    <g id="Group_10" data-name="Group 10" transform="translate(64)">
      <g id="Group_9" data-name="Group 9">
        <path id="Path_11" data-name="Path 11" d="M74.452,0A10.463,10.463,0,0,0,64,10.452c0,7.245,9.435,16.763,9.835,17.166a.875.875,0,0,0,1.233,0c.4-.4,9.835-9.921,9.835-17.166A10.463,10.463,0,0,0,74.452,0Zm0,25.742c-2.08-2.226-8.71-9.755-8.71-15.29a8.71,8.71,0,1,1,17.42,0C83.162,15.981,76.532,23.515,74.452,25.742Z" transform="translate(-64)" fill="#f5c1d9"/>
      </g>
    </g>
    <g id="Group_12" data-name="Group 12" transform="translate(69.226 5.226)">
      <g id="Group_11" data-name="Group 11">
        <path id="Path_12" data-name="Path 12" d="M165.226,96a5.226,5.226,0,1,0,5.226,5.226A5.232,5.232,0,0,0,165.226,96Zm0,8.71a3.484,3.484,0,1,1,3.484-3.484A3.488,3.488,0,0,1,165.226,104.71Z" transform="translate(-160 -96)" fill="#f5c1d9"/>
      </g>
    </g>
  </g>
</svg>
