<svg xmlns="http://www.w3.org/2000/svg" width="18.224" height="20.898" viewBox="0 0 18.224 20.898">
  <path id="_004-shopping-bag" data-name="004-shopping-bag" d="M17.219,19.244l-1.512-14.4a.592.592,0,0,0-.589-.53H12.275V3.664a3.664,3.664,0,0,0-7.328,0v.648H2.1a.592.592,0,0,0-.589.53L0,19.244a.592.592,0,0,0,.589.654H16.629a.592.592,0,0,0,.589-.654ZM6.131,3.664a2.48,2.48,0,0,1,4.959,0v.648H6.131ZM1.249,18.714,2.637,5.5H4.947V6.8a.592.592,0,0,0,1.184,0V5.5H11.09V6.8a.592.592,0,0,0,1.184,0V5.5h2.309l1.388,13.218Zm0,0" transform="translate(0.502 0.5)" fill="#e7bfce" stroke="#e7bfce" stroke-width="1"/>
</svg>
