<svg xmlns="http://www.w3.org/2000/svg" width="20.899" height="20.898" viewBox="0 0 20.899 20.898">
  <g id="_003-user" data-name="003-user" transform="translate(0.5 0.5)">
    <g id="Group_2" data-name="Group 2" transform="translate(0 0)">
      <path id="Path_10" data-name="Path 10" d="M16.985,12.863A9.911,9.911,0,0,0,13.2,10.492a5.752,5.752,0,1,0-6.509,0A9.965,9.965,0,0,0,0,19.9H1.555a8.395,8.395,0,0,1,16.79,0H19.9A9.884,9.884,0,0,0,16.985,12.863ZM9.949,9.949a4.2,4.2,0,1,1,4.2-4.2A4.2,4.2,0,0,1,9.949,9.949Z" transform="translate(0)" fill="#e7bfce" stroke="#e7bfce" stroke-width="1"/>
    </g>
  </g>
</svg>
