<svg viewBox="0 0 24 24" xmlns="http://www.w3.org/2000/svg"><path fill-rule="evenodd" clip-rule="evenodd" d="M18.6843 10.4431L18.6843 12.8286C18.6843 13.2776 18.506 13.7082 18.1884 14.0257L9.70562 22.5085C9.37504 22.8391 8.83905 22.8391 8.50846 22.5085L1.3255 15.3256C0.994914 14.995 0.994913 14.459 1.3255 14.1284L9.80832 5.6456C10.1258 5.32809 10.5565 5.14972 11.0055 5.14972H13.391C13.5184 4.14537 13.968 3.17321 14.7393 2.40189C16.5875 0.553698 19.584 0.553698 21.4322 2.40189C23.2804 4.25009 23.2804 7.24661 21.4322 9.0948C20.6609 9.8661 19.6887 10.3157 18.6843 10.4431ZM11.0055 6.14972L17.6843 6.14972V9.45947C17.4051 9.42948 17.1287 9.36808 16.8608 9.27527C17.0506 8.64509 16.8965 7.93349 16.3985 7.43553C15.6774 6.71442 14.5083 6.71442 13.7872 7.43553C13.066 8.15664 13.066 9.32579 13.7872 10.0469C14.4779 10.7376 15.5796 10.7667 16.3049 10.1343C16.7487 10.3143 17.2142 10.4241 17.6843 10.464V12.8286C17.6843 13.0124 17.6113 13.1886 17.4813 13.3186L9.10704 21.6929L2.14113 14.727L10.5154 6.35271C10.6454 6.22274 10.8217 6.14972 11.0055 6.14972ZM18.6843 9.43297C19.4317 9.3123 20.1488 8.964 20.7251 8.3877C22.1828 6.93002 22.1828 4.56667 20.7251 3.109C19.2674 1.65133 16.9041 1.65133 15.4464 3.109C14.8701 3.68527 14.5218 4.40233 14.4011 5.14972H17.8378C18.3053 5.14972 18.6843 5.52872 18.6843 5.99624L18.6843 9.43297ZM15.9372 8.80141C15.954 8.56517 15.872 8.32325 15.6914 8.14264C15.5108 7.96202 15.2689 7.88008 15.0326 7.89683C15.1541 8.06896 15.292 8.23329 15.4464 8.3877C15.6006 8.54192 15.7649 8.67982 15.9372 8.80141ZM14.2687 8.54722C14.4095 8.73872 14.5664 8.92188 14.7393 9.0948C14.9123 9.26785 15.0955 9.4247 15.2868 9.56534C15.0111 9.62996 14.7092 9.55478 14.4943 9.3398C14.2793 9.12481 14.2041 8.82295 14.2687 8.54722Z"></path></svg>