<svg xmlns="http://www.w3.org/2000/svg" viewBox="0 0 24 24"><title lang="en">Tim Hortons Barcode Icon</title><g id="Future" stroke="none" stroke-width="1" fill-rule="evenodd"><g id="Homepage-2.0-Do" transform="translate(-312.000000, -373.000000)"><g id="SCAN" transform="translate(21.000000, 280.000000)"><g id="SAcan-rewards" transform="translate(0.000000, 73.868079)"><path d="M301.977513,24.5979544 C301.696006,24.5979544 301.508344,24.4102867 301.508344,24.1287852 L301.508344,20.4692226 C301.508344,20.1877157 301.696011,20.0000534 301.977513,20.0000534 C302.25902,20.0000534 302.446682,20.1877211 302.446682,20.4692226 L302.446682,24.1277175 C302.445641,24.4102654 302.257971,24.5979544 301.977513,24.5979544 L301.977513,24.5979544 Z M305.870619,27.6465667 L305.870619,20.4691692 C305.870619,20.1876623 305.682951,20 305.40145,20 C305.119943,20 304.932281,20.1876677 304.932281,20.4691692 L304.932281,27.1773441 L301.97762,27.1773441 C301.696113,27.1773441 301.50845,27.3650118 301.50845,27.6465133 C301.50845,27.9280202 301.696118,28.1156826 301.97762,28.1156826 L305.401503,28.1156826 C305.68301,28.1156826 305.870672,27.8810953 305.870672,27.6465133 L305.870619,27.6465667 Z M299.021784,27.6465667 L299.021784,20.4691692 C299.021784,20.1876623 298.834116,20 298.552615,20 C298.271108,20 298.083446,20.1876677 298.083446,20.4691692 L298.083446,27.6465667 C298.083446,27.9280736 298.271113,28.1157359 298.552615,28.1157359 C298.834122,28.1157359 299.021784,27.8811487 299.021784,27.6465667 Z M312.999973,27.6465667 C312.999973,27.3650599 312.812303,27.1773975 312.530804,27.1773975 L308.825334,27.1773975 C308.543827,27.1773975 308.356164,27.3650652 308.356164,27.6465667 C308.356164,27.9280736 308.543832,28.1157359 308.825334,28.1157359 L312.483828,28.1157359 C312.765335,28.1157359 312.99992,27.8811487 312.99992,27.6465667 L312.999973,27.6465667 Z M312.999973,34.4954017 L312.999973,31.071518 C312.999973,30.7900111 312.812303,30.6023488 312.530804,30.6023488 L308.825334,30.6023488 C308.543827,30.6023488 308.356164,30.7900192 308.356164,31.071518 L308.356164,34.4954017 C308.356164,34.7769085 308.543832,34.9645709 308.825334,34.9645709 C309.10684,34.9645709 309.294503,34.7769032 309.294503,34.4954017 L309.294503,31.5407406 L312.014552,31.5407406 L312.014552,34.4954017 C312.014552,34.7769085 312.20222,34.9645709 312.483722,34.9645709 C312.765229,34.9645709 312.999813,34.7299836 312.999813,34.4954017 L312.999973,34.4954017 Z M295.5979,27.6465667 C295.5979,27.3650599 295.410233,27.1773975 295.128731,27.1773975 L291.469169,27.1773975 C291.187663,27.1773975 291,27.3650652 291,27.6465667 C291,27.9280736 291.187668,28.1157359 291.469169,28.1157359 L295.127664,28.1157359 C295.410211,28.1157359 295.5979,27.8811487 295.5979,27.6465667 L295.5979,27.6465667 Z M302.445668,34.4954017 L302.445668,31.071518 C302.445668,30.7900111 302.258,30.6023488 301.976499,30.6023488 L291.469169,30.6023488 C291.187663,30.6023488 291,30.7900192 291,31.071518 C291,31.3530169 291.187668,31.5406872 291.469169,31.5406872 L301.507276,31.5406872 L301.507276,34.4953483 C301.507276,34.7768552 301.694944,34.9645175 301.976445,34.9645175 C302.257952,34.9645175 302.445668,34.7299302 302.445668,34.4953483 L302.445668,34.4954017 Z M299.021784,34.4954017 C299.021784,34.2138948 298.834116,34.0262324 298.552615,34.0262324 L291.469169,34.0262324 C291.187663,34.0262324 291,34.2139001 291,34.4954017 C291,34.7769032 291.187668,34.9645709 291.469169,34.9645709 L298.552615,34.9645709 C298.834122,34.9645709 299.021784,34.7299836 299.021784,34.4954017 Z M299.021784,41.5318723 L299.021784,37.9203529 C299.021784,37.6388461 298.834116,37.4511837 298.552615,37.4511837 C298.271108,37.4511837 298.083446,37.6388514 298.083446,37.9203529 L298.083446,41.5318723 C298.083446,41.8133791 298.271113,42.0010415 298.552615,42.0010415 C298.834122,41.9999989 299.021784,41.7654133 299.021784,41.5318723 Z M312.999973,41.5318723 C312.999973,41.2503654 312.812303,41.062703 312.530804,41.062703 L308.825334,41.062703 C308.543827,41.062703 308.356164,41.2503707 308.356164,41.5318723 C308.356164,41.8133791 308.543832,42.0010415 308.825334,42.0010415 L312.483828,42.0010415 C312.765335,41.9999989 312.99992,41.7654133 312.99992,41.5318723 L312.999973,41.5318723 Z M313,37.9192853 C313,37.6377785 312.812303,37.4501161 312.530804,37.4501161 L305.870672,37.4501161 L305.870672,31.0705038 C305.870672,30.7889969 305.683005,30.6013345 305.401503,30.6013345 C305.119996,30.6013345 304.932334,30.7890022 304.932334,31.0705038 L304.932334,37.9193387 C304.932334,38.2008456 305.120002,38.3885079 305.401503,38.3885079 L312.484949,38.3885079 C312.765415,38.3885079 313,38.1539206 313,37.9193387 L313,37.9192853 Z M305.870619,41.5318723 C305.870619,41.2503654 305.682951,41.062703 305.40145,41.062703 L302.446789,41.062703 L302.446789,37.9204063 C302.446789,37.6388995 302.259121,37.4512371 301.97762,37.4512371 C301.696113,37.4512371 301.50845,37.6389048 301.50845,37.9204063 L301.50845,41.5319256 C301.50845,41.8134325 301.696118,42.0010949 301.97762,42.0010949 L305.401503,42.0010949 C305.68301,42.0000523 305.870672,41.7654666 305.870672,41.5319256 L305.870619,41.5318723 Z M295.5979,41.5318723 L295.5979,37.9203529 C295.5979,37.6388461 295.410233,37.4511837 295.128731,37.4511837 L291.469169,37.4501401 C291.187662,37.4501401 291,37.6378105 291,37.9193093 L291,41.5308287 C291,41.8123363 291.187668,41.9999987 291.469169,41.9999987 L295.127664,41.9999987 C295.410211,41.9999987 295.5979,41.7654114 295.5979,41.5318696 L295.5979,41.5318723 Z M291.938338,38.3885079 L294.658388,38.3885079 L294.658388,41.0618489 L291.938338,41.0628925 L291.938338,38.3885079 Z M295.5979,24.0817562 L295.5979,20.4691692 C295.5979,20.1876623 295.410233,20 295.128731,20 L291.469169,20.0010409 C291.188703,20.0010409 291.001041,20.1887113 291.001041,20.4691692 L291.001041,24.0806885 C291.001041,24.3621954 291.188711,24.5498612 291.47021,24.5498612 L295.128705,24.5498612 C295.410211,24.5509013 295.5979,24.3163141 295.5979,24.0817295 L295.5979,24.0817562 Z M291.938338,20.9383918 L294.658388,20.9383918 L294.658388,23.6117328 L291.938338,23.6127738 L291.938338,20.9383918 Z M312.999976,24.0817562 L312.999976,20.4691692 C312.999976,20.1876623 312.812306,20 312.530807,20 L308.825334,20.0010409 C308.543827,20.0010409 308.356164,20.1887113 308.356164,20.4702102 L308.356164,24.0817295 C308.356164,24.3632363 308.543832,24.5508987 308.825334,24.5508987 L312.483828,24.5508987 C312.765335,24.5508987 312.99992,24.3163114 312.99992,24.0817295 L312.999976,24.0817562 Z M309.294503,20.9383918 L312.014552,20.9383918 L312.014552,23.6117328 L309.294503,23.6127738 L309.294503,20.9383918 Z" id="SFR-Home-Icon"></path></g></g></g></g></svg>